<svg width="117" height="68" viewBox="0 0 117 68" fill="none" xmlns="http://www.w3.org/2000/svg">
<path d="M59.4757 39.9852C59.4757 44.4526 56.1971 47.4527 51.8304 47.4004C47.5594 47.3491 44.4315 44.335 44.4315 39.9852C44.4315 35.6694 47.5021 32.5952 51.893 32.57C56.3328 32.5438 59.4757 35.6134 59.4757 39.9852ZM49.9063 44.3075C50.0173 45.2481 50.225 45.9102 50.5282 46.2942C51.145 47.0757 52.7626 47.0757 53.3795 46.2942C53.6823 45.9102 53.8899 45.2481 54.0009 44.3075C54.112 43.3669 54.168 41.9261 54.168 39.9852C54.168 38.0438 54.112 36.6035 54.0009 35.6633C53.8899 34.7227 53.6823 34.0607 53.3795 33.6767C52.7622 32.8952 51.1455 32.8952 50.5282 33.6767C50.225 34.0607 50.0173 34.7227 49.9063 35.6633C49.7953 36.6035 49.7397 38.0438 49.7397 39.9852C49.7397 41.9261 49.7953 43.3669 49.9063 44.3075Z" fill="#2B2E8C"/>
<path d="M70.7342 40.8037C71.2199 41.5927 71.4621 42.4013 71.4621 43.2299C71.4621 44.1001 71.1891 44.8988 70.6432 45.6267C68.7657 48.0281 62.991 47.4608 60.7552 46.0508V42.1386H61.1499C61.3319 42.866 61.6501 43.5948 62.105 44.3222C62.5599 45.0505 63.1361 45.657 63.8341 46.1423C67.1066 48.4187 69.9457 45.0906 66.4576 42.7148L63.3941 40.8644C62.4843 40.2784 61.7816 39.6159 61.2861 38.8777C60.7906 38.1396 60.5434 37.387 60.5434 36.6181C60.5434 35.7489 60.8564 34.9399 61.483 34.1915C63.0773 32.4209 66.7609 32.5422 68.8689 32.963C69.7283 33.1356 70.3904 33.3423 70.8555 33.585V36.8309H70.4613C70.1986 35.7998 69.6574 34.9198 68.839 34.1915C65.7792 31.4733 61.4821 34.3053 65.6388 36.9214L68.7023 38.8325C69.5715 39.3588 70.249 40.0152 70.7342 40.8037Z" fill="#2B2E8C"/>
<path d="M94.8824 33.6914C94.498 33.9242 94.0888 34.394 93.654 35.1018C93.2191 35.8096 92.7488 36.8412 92.2435 38.1952L88.9071 47.2644H87.9063L83.6903 38.0743L80.4449 47.2644H79.3834L73.7113 34.9497C73.388 34.3035 73.0544 33.8785 72.7105 33.6764C72.3666 33.4744 72.0027 33.3629 71.6183 33.3424V32.9784H79.292V33.3424C78.7465 33.3424 78.4736 33.6153 78.4736 34.1617C78.4736 34.5662 78.6145 35.0514 78.8977 35.6174L81.9005 41.9259L83.478 37.619L82.2342 34.9497C81.9108 34.283 81.6225 33.8537 81.3701 33.661C81.1172 33.4688 80.8288 33.3629 80.5055 33.3424V32.9784H87.9063V33.3424C87.2997 33.3424 86.9964 33.6256 86.9964 34.1915C86.9964 34.596 87.1374 35.0715 87.421 35.6174L90.3936 41.9567L91.8194 38.1047C92.0214 37.437 92.1222 36.7502 92.1222 36.042C92.1222 35.274 91.9552 34.6315 91.6216 34.1159C91.288 33.6008 90.7169 33.3424 89.9083 33.3424V32.9784H96.1258V33.3424C95.6807 33.3424 95.2664 33.459 94.8824 33.6914Z" fill="#2B2E8C"/>
<path d="M115.433 45.6413C115.594 46.1568 115.928 46.4755 116.434 46.5964V46.9911H109.519V46.5964C110.044 46.4555 110.378 46.1317 110.52 45.6259C110.66 45.1211 110.732 44.3932 110.732 43.4423V27.8827C110.732 27.3568 110.625 26.9574 110.413 26.6845C110.201 26.4116 109.781 26.1643 109.154 25.9417V25.547L115.19 24.3642V43.4423C115.19 44.3932 115.271 45.1257 115.433 45.6413Z" fill="#2B2E8C"/>
<path d="M98.5852 43.4485C98.5852 45.7137 101.053 46.2713 101.928 44.0854V39.7178C100.024 40.1555 98.5852 41.3672 98.5852 43.4485ZM97.548 34.3942C98.4662 34.5519 99.1647 35.3516 99.1647 36.3142C99.1647 36.7038 99.0499 37.0668 98.853 37.3714C98.672 37.6658 98.4228 37.9015 98.1065 38.0797C97.8434 38.222 97.5499 38.292 97.2266 38.292C96.8631 38.292 96.529 38.2015 96.2262 38.019C95.9225 37.8375 95.6799 37.5847 95.4979 37.2609C95.4265 37.1288 95.3738 36.987 95.3383 36.8344C95.2926 36.6692 95.2679 36.4947 95.2679 36.3142C95.2679 35.6927 95.559 35.1394 96.0116 34.7824C98.1928 32.3712 102.719 31.7124 104.976 34.3644C105.896 35.4464 106.356 36.9277 106.356 38.808V43.3272C106.356 43.8726 106.478 44.3635 106.721 44.7983C106.963 45.2332 107.327 45.4506 107.812 45.4506C107.994 45.4506 108.171 45.4044 108.343 45.3139C108.514 45.2229 108.631 45.0969 108.692 44.935L109.025 45.1165C108.844 45.7231 108.408 46.2391 107.722 46.6637C105.741 47.887 102.271 47.378 101.959 44.6919C101.735 45.4403 101.236 46.0623 100.457 46.5573C99.167 47.3775 97.5326 47.5063 96.1049 46.9973C93.9969 46.2456 93.3671 43.5302 94.8004 41.9471C96.062 40.5553 99.3065 39.9348 101.079 39.5055L101.928 39.2932V37.3822C101.928 36.1495 101.686 35.1683 101.2 34.44C99.8352 32.3908 97.2004 33.8054 97.548 34.3942Z" fill="#2B2E8C"/>
<path d="M59.6341 27.5236C59.9471 27.3216 60.1949 27.0892 60.3769 26.8261L60.7104 27.0384C60.4473 27.8273 59.9014 28.5193 59.0733 29.1155C56.0181 31.3131 51.7947 29.8107 51.7947 25.3704V16.1645H50.0969L50.0362 15.7273H51.7947V11.6634L56.2528 11.027V15.7273H60.0129L59.9523 16.1645H56.2528V25.2798C56.2528 26.1491 56.4348 26.7911 56.7987 27.2054C57.1626 27.6197 57.7487 27.8273 58.5577 27.8273C58.9617 27.8273 59.3201 27.7261 59.6341 27.5236Z" fill="#2B2E8C"/>
<path d="M67.4913 28.3724C67.6528 28.8782 67.9863 29.2015 68.4921 29.3429V29.7367H61.5775V29.3429C62.1034 29.2015 62.4369 28.8726 62.5783 28.357C62.7197 27.8415 62.7906 27.1094 62.7906 26.1585V19.0928C62.7906 18.5879 62.6847 18.1937 62.4724 17.9105C62.2601 17.6268 61.8402 17.3445 61.2141 17.0609V16.6969L67.2482 15.454V26.1585C67.2482 27.1295 67.3289 27.8676 67.4913 28.3724ZM64.7012 8.93132C66.0515 8.93132 67.1456 10.025 67.1456 11.3752C67.1456 12.725 66.0515 13.8196 64.7012 13.8196C63.3514 13.8196 62.2573 12.725 62.2573 11.3752C62.2573 10.025 63.3514 8.93132 64.7012 8.93132Z" fill="#2B2E8C"/>
<path d="M76.0058 28.3878C76.1677 28.9029 76.5013 29.2216 77.0066 29.3429V29.7367H70.0925V29.3429C70.6183 29.2015 70.9519 28.8782 71.0937 28.3724C71.2346 27.8676 71.3055 27.1393 71.3055 26.1889V10.6324C71.3055 10.1066 71.1996 9.7077 70.9873 9.43476C70.7751 9.16181 70.3551 8.91452 69.729 8.6915V8.29725L75.7636 7.11449V26.1889C75.7636 27.1393 75.8444 27.8718 76.0058 28.3878Z" fill="#2B2E8C"/>
<path d="M82.2264 26.1591C82.2264 28.4233 84.6937 28.9813 85.569 26.7959V22.4293C83.6649 22.8665 82.2264 24.0786 82.2264 26.1591ZM81.1897 17.1066C82.1075 17.2643 82.8059 18.0636 82.8059 19.0261C82.8059 19.4157 82.6916 19.7787 82.4943 20.0834C82.3132 20.3773 82.0641 20.6139 81.7477 20.7916C81.4851 20.9335 81.1916 21.0044 80.8683 21.0044C80.5048 21.0044 80.1712 20.9129 79.8679 20.731C79.5647 20.549 79.322 20.2966 79.1401 19.9728C79.0687 19.8407 79.0155 19.6989 78.9805 19.5468C78.9343 19.3812 78.9101 19.2067 78.9101 19.0261C78.9101 18.4046 79.2007 17.8518 79.6538 17.4948C81.8341 15.0841 86.3598 14.4252 88.6161 17.0772C89.5362 18.1588 89.9963 19.6397 89.9963 21.5195V26.0377C89.9963 26.5836 90.1176 27.074 90.3602 27.5084C90.6033 27.9437 90.9662 28.1606 91.4519 28.1606C91.6334 28.1606 91.8107 28.1149 91.9824 28.0244C92.1537 27.933 92.2708 27.807 92.3314 27.6451L92.665 27.827C92.4831 28.4336 92.0478 28.9491 91.361 29.3733C89.3808 30.5961 85.9119 30.0876 85.5993 27.4025C85.3758 28.1508 84.8761 28.7719 84.0983 29.2678C82.8087 30.0876 81.1743 30.2164 79.7466 29.7073C77.6396 28.9561 77.0097 26.2402 78.4426 24.6581C79.7042 23.2663 82.9482 22.6458 84.7203 22.2165L85.569 22.0047V20.0941C85.569 18.8614 85.3263 17.8802 84.8406 17.1528C83.4764 15.1036 80.8421 16.5178 81.1897 17.1066Z" fill="#2B2E8C"/>
<path d="M99.4344 28.3878C99.5958 28.9029 99.929 29.2216 100.435 29.3429V29.7367H93.5211V29.3429C94.0464 29.2015 94.3796 28.8782 94.5219 28.3724C94.6628 27.8676 94.7337 27.1393 94.7337 26.1889V10.6324C94.7337 10.1066 94.6278 9.7077 94.4155 9.43476C94.2032 9.16181 93.7837 8.91452 93.1571 8.6915V8.29725L99.1918 7.11449V26.1889C99.1918 27.1393 99.2725 27.8718 99.4344 28.3878Z" fill="#2B2E8C"/>
<path d="M50.1195 22.7315C50.1195 27.1979 46.8419 30.1971 42.4762 30.1448C38.2057 30.0939 35.0782 27.0799 35.0782 22.7315C35.0782 18.4171 38.1483 15.3428 42.5382 15.3172C46.9772 15.291 50.1195 18.3606 50.1195 22.7315ZM40.552 27.0528C40.6631 27.9925 40.8707 28.655 41.1735 29.0386C41.7903 29.8201 43.4075 29.8201 44.0243 29.0386C44.3275 28.655 44.5347 27.9925 44.6462 27.0528C44.7568 26.1127 44.8128 24.6719 44.8128 22.7315C44.8128 20.791 44.7568 19.3502 44.6462 18.4101C44.5347 17.4699 44.3275 16.8079 44.0243 16.4239C43.407 15.6424 41.7913 15.6424 41.1735 16.4239C40.8707 16.8079 40.6631 17.4699 40.552 18.4101C40.441 19.3502 40.3855 20.791 40.3855 22.7315C40.3855 24.6719 40.441 26.1127 40.552 27.0528Z" fill="#2B2E8C"/>
<path d="M33.6765 28.3724C33.8477 28.8987 34.1772 29.2216 34.6619 29.3429V29.7367H27.7478V29.3429C28.2736 29.202 28.6072 28.8726 28.7486 28.357C28.89 27.8419 28.9609 27.1094 28.9609 26.1585V20.1542C28.9609 18.4769 28.3641 17.6375 27.1721 17.6375C26.7269 17.6375 26.2926 17.8349 25.868 18.2282C25.4434 18.6229 25.1803 19.0732 25.0795 19.5785L25.1098 20.1239V26.1585C25.1098 27.1094 25.1957 27.8471 25.3674 28.3724C25.5391 28.8987 25.868 29.2216 26.3532 29.3429V29.7367H19.4391V29.3429C19.9645 29.202 20.2985 28.8726 20.4399 28.357C20.5813 27.8419 20.6522 27.1094 20.6522 26.1585V20.1542C20.6522 19.3051 20.5103 18.6738 20.2276 18.259C19.9444 17.8447 19.4998 17.6375 18.8932 17.6375C18.4481 17.6375 18.024 17.8298 17.6195 18.2138C17.215 18.5977 16.9625 19.0121 16.8618 19.4567V26.1893C16.8618 27.1393 16.942 27.8676 17.1039 28.3724C17.2658 28.8782 17.5994 29.202 18.1047 29.3429V29.7367H11.1906V29.3429C11.7159 29.202 12.0449 28.8828 12.1764 28.3878C12.3076 27.8918 12.3734 27.1593 12.3734 26.1893V19.1838C12.3734 18.6379 12.267 18.2189 12.0551 17.9254C11.8433 17.6329 11.4332 17.3445 10.8267 17.0609V16.6969L16.8618 15.454V18.4564C18.7085 14.4845 24.3824 14.274 25.0492 18.6075C25.3925 17.6982 25.959 16.9452 26.747 16.3484C29.909 13.9586 33.4185 15.88 33.4185 20.0632V26.1585C33.4185 27.1094 33.5044 27.8471 33.6765 28.3724Z" fill="#2B2E8C"/>
<mask id="mask0_5457_42876" style="mask-type:luminance" maskUnits="userSpaceOnUse" x="0" y="-1" width="43" height="47">
<path d="M0.00244904 22.7844C0.00244904 35.3482 10.2236 45.5694 22.787 45.5694C30.8018 45.5694 38.3196 41.2802 42.4068 34.3759C42.6676 33.9354 42.522 33.3676 42.0821 33.1068C41.6416 32.846 41.0733 32.992 40.8125 33.432C37.0571 39.7755 30.15 43.7161 22.787 43.7161C11.245 43.7161 1.8552 34.3264 1.8552 22.7844C1.8552 11.2433 11.245 1.85304 22.787 1.85304C30.15 1.85304 37.0571 5.7937 40.812 12.1372C41.0733 12.5781 41.6411 12.7237 42.0816 12.4629C42.522 12.2016 42.6676 11.6338 42.4068 11.1933C38.3196 4.28902 30.8018 -0.000183105 22.787 -0.000183105C10.2236 -0.000183105 0.00244904 10.221 0.00244904 22.7844Z" fill="white"/>
</mask>
<g mask="url(#mask0_5457_42876)">
<mask id="mask1_5457_42876" style="mask-type:luminance" maskUnits="userSpaceOnUse" x="-21" y="-20" width="85" height="86">
<path d="M29.9046 -19.5358L63.5332 31.9373L12.766 65.1054L-20.863 13.6323L29.9046 -19.5358Z" fill="white"/>
</mask>
<g mask="url(#mask1_5457_42876)">
<path d="M22.3083 45.6115V45.5649H21.3285V45.5182H20.6753V45.4716H20.2087V45.4249H19.8821V45.3783H19.5089V45.3316H19.1823V45.2849H18.9023V45.2383H18.669V45.1916H18.3891V45.145H18.1558V45.0983H17.9225V45.0517H17.7359V45.005H17.5493V44.9583H17.3626V44.9117H17.1293V44.865H16.9427V44.8184H16.8027V44.7717H16.6161V44.7251H16.4761V44.6784H16.2895V44.6317H16.1495V44.5851H15.9629V44.5384H15.8229V44.4918H15.7296V44.4451H15.5897V44.3985H15.4497V44.3518H15.3097V44.3051H15.1697V44.2585H15.0298V44.2118H14.8898V44.1652H14.7498V44.1185H14.6565V44.0719H14.5165V44.0252H14.4232V43.9786H14.2833V43.9319H14.1899V43.8852H14.05V43.8386H13.9567V43.7919H13.8167V43.7453H13.7234V43.6986H13.6301V43.652H13.5367V43.6053H13.4434V43.5586H13.3035V43.512H13.2101V43.4653H13.1168V43.4187H13.0235V43.372H12.9302V43.3254H12.8369V43.2787H12.7436V43.232H12.6503V43.1854H12.5569V43.1387H12.4636V43.0921H12.3703V43.0454H12.277V42.9988H12.1837V42.9521H12.0904V42.9054H11.9971V42.8588H11.9037V42.8121H11.8104V42.7655H11.7638V42.7188H11.6705V42.6722H11.5771V42.6255H11.4838V42.5788H11.4372V42.5322H11.3439V42.4855H11.2505V42.4389H11.1572V42.3922H11.1106V42.3456H11.0173V42.2989H10.9239V42.2522H10.8773V42.2056H10.784V42.1589H10.7373V42.1123H10.644V42.0656H10.5507V42.019H10.504V41.9723H10.4107V41.9256H10.3641V41.879H10.2707V41.8323H10.2241V41.7857H10.1308V41.739H10.0841V41.6924H9.9908V41.6457H9.94414V41.599H9.85083V41.5524H9.80417V41.5057H9.71086V41.4591H9.6642V41.4124H9.61754V41.3658H9.52423V41.3191H9.47757V41.2724H9.38426V41.2258H9.3376V41.1791H9.29094V41.1325H9.19763V41.0858H9.15097V41.0392H9.10431V40.9925H9.011V40.9458H8.96434V40.8992H8.91769V40.8525H8.82437V40.8059H8.77772V40.7592H8.73106V40.7126H8.6844V40.6659H8.59109V40.6192H8.54443V40.5726H8.49777V40.5259H8.45112V40.4793H8.3578V40.4326H8.31114V40.386H8.26449V40.3393H8.21783V40.2926H8.17117V40.246H8.07786V40.1993H8.0312V40.1527H7.98454V40.106H7.93789V40.0594H7.89123V40.0127H7.84457V39.966H7.75126V39.9194H7.7046V39.8727H7.65794V39.8261H7.61129V39.7794H7.56463V39.7328H7.51797V39.6861H7.47132V39.6394H7.378V39.5928H7.33134V39.5461H7.28469V39.4995H7.23803V39.4528H7.19137V39.4062H7.14472V39.3595H7.09806V39.3128H7.0514V39.2662H7.00474V39.2195H6.95809V39.1729H6.91143V39.1262H6.86477V39.0796H6.81812V39.0329H6.77146V38.9862H6.7248V38.9396H6.67814V38.8929H6.63149V38.8463H6.58483V38.7996H6.53817V38.753H6.49152V38.7063H6.44486V38.6596H6.3982V38.613H6.35154V38.5663H6.30489V38.5197H6.25823V38.473H6.21157V38.4264H6.16492V38.3797H6.11826V38.333H6.0716V38.2864H6.02494V38.2397H5.97829V38.1931H5.93163V38.0998H5.88497V38.0531H5.83832V38.0064H5.79166V37.9598H5.745V37.9131H5.69835V37.8665H5.65169V37.8198H5.60503V37.7265H5.55837V37.6798H5.51172V37.6332H5.46506V37.5865H5.4184V37.5399H5.37175V37.4932H5.32509V37.3999H5.27843V37.3532H5.23177V37.3066H5.18512V37.2599H5.13846V37.2133H5.0918V37.12H5.04515V37.0733H4.99849V37.0266H4.95183V36.98H4.90517V36.8867H4.85852V36.84H4.81186V36.7934H4.7652V36.7467H4.71855V36.6534H4.67189V36.6067H4.62523V36.5601H4.57857V36.4668H4.53192V36.4201H4.48526V36.3734H4.4386V36.2801H4.39195V36.2335H4.34529V36.1868H4.29863V36.0935H4.25197V36.0468H4.20532V35.9535H4.15866V35.9069H4.112V35.8136H4.06535V35.7669H4.01869V35.7202H3.97203V35.6269H3.92537V35.5803H3.87872V35.487H3.83206V35.4403H3.7854V35.347H3.73875V35.3003H3.69209V35.207H3.64543V35.1604H3.59877V35.067H3.55212V34.9737H3.50546V34.9271H3.4588V34.8338H3.41215V34.7871H3.36549V34.6938H3.31883V34.6471H3.27217V34.5538H3.22552V34.4605H3.17886V34.4138H3.1322V34.3205H3.08555V34.2272H3.03889V34.1339H2.99223V34.0872H2.94557V33.9939H2.89892V33.9006H2.85226V33.8073H2.8056V33.7606H2.75895V33.6673H2.71229V33.574H2.66563V33.4807H2.61897V33.3874H2.57232V33.2941H2.52566V33.2008H2.479V33.1074H2.43235V33.0141H2.38569V32.9208H2.33903V32.8275H2.29237V32.7342H2.24572V32.6409H2.19906V32.5476H2.1524V32.4542H2.10575V32.3609H2.05909V32.2676H2.01243V32.1276H1.96577V32.0343H1.91912V31.941H1.87246V31.8477H1.8258V31.7544H1.77915V31.6144H1.73249V31.5211H1.68583V31.3811H1.63917V31.2878H1.59252V31.1478H1.54586V31.0545H1.4992V30.9146H1.45255V30.7746H1.40589V30.6813H1.35923V30.5413H1.31258V30.4013H1.26592V30.2614H1.21926V30.1214H1.1726V29.9814H1.12595V29.8414H1.07929V29.7015H1.03263V29.6082H0.985975V29.4215H0.939318V29.2816H0.892661V29.0949H0.846004V28.9083H0.799347V28.7683H0.75269V28.5817H0.706032V28.4417H0.659375V28.2084H0.612718V28.0218H0.566061V27.8352H0.519404V27.6019H0.472747V27.4153H0.42609V27.182H0.379433V26.902H0.332775V26.6221H0.286118V26.3888H0.239461V26.0622H0.192804V25.689H0.146147V25.3157H0.0994898V24.8491H0.0528327V24.2426H0.00617556V23.1695H-0.0404816V22.3763H0.00617556V21.3498H0.0528327V20.7433H0.0994898V20.2301H0.146147V19.8568H0.192804V19.5302H0.239461V19.2036H0.286118V18.9237H0.332775V18.6437H0.379433V18.4104H0.42609V18.1305H0.472747V17.9439H0.519404V17.7572H0.566061V17.524H0.612718V17.3373H0.659375V17.1507H0.706032V16.9641H0.75269V16.8241H0.799347V16.6375H0.846004V16.4975H0.892661V16.3109H0.939318V16.1242H0.985975V15.9843H1.03263V15.8443H1.07929V15.7043H1.12595V15.5644H1.1726V15.4244H1.21926V15.2844H1.26592V15.1444H1.31258V15.0045H1.35923V14.9112H1.40589V14.7712H1.45255V14.6779H1.4992V14.5379H1.54586V14.3979H1.59252V14.3046H1.63917V14.1646H1.68583V14.0713H1.73249V13.9314H1.77915V13.838H1.8258V13.7447H1.87246V13.6514H1.91912V13.5114H1.96577V13.4181H2.01243V13.3248H2.05909V13.2315H2.10575V13.1382H2.1524V12.9982H2.19906V12.9049H2.24572V12.8116H2.29237V12.7183H2.33903V12.625H2.38569V12.5317H2.43235V12.4383H2.479V12.345H2.52566V12.2517H2.57232V12.1584H2.61897V12.1117H2.66563V12.0184H2.71229V11.9251H2.75895V11.8318H2.8056V11.7385H2.85226V11.6452H2.89892V11.5985H2.94557V11.5052H2.99223V11.4119H3.03889V11.3186H3.08555V11.2719H3.1322V11.1786H3.17886V11.0853H3.22552V11.0386H3.27217V10.9453H3.31883V10.852H3.36549V10.8053H3.41215V10.712H3.4588V10.6654H3.50546V10.5721H3.55212V10.4787H3.59877V10.4321H3.64543V10.3388H3.69209V10.2921H3.73875V10.1988H3.7854V10.1521H3.83206V10.0588H3.87872V10.0122H3.92537V9.91885H3.97203V9.87219H4.01869V9.77888H4.06535V9.73222H4.112V9.68557H4.15866V9.59225H4.20532V9.54559H4.25197V9.45228H4.29863V9.40562H4.34529V9.35897H4.39195V9.26565H4.4386V9.21899H4.48526V9.12568H4.53192V9.07902H4.57857V9.03236H4.62523V8.98571H4.67189V8.8924H4.71855V8.84574H4.7652V8.79908H4.81186V8.70576H4.85852V8.65911H4.90517V8.61245H4.95183V8.56579H4.99849V8.47248H5.04515V8.42582H5.0918V8.37917H5.13846V8.33251H5.18512V8.23919H5.23177V8.19254H5.27843V8.14588H5.32509V8.09922H5.37175V8.05257H5.4184V8.00591H5.46506V7.91259H5.51172V7.86594H5.55837V7.81928H5.60503V7.77262H5.65169V7.72597H5.69835V7.67931H5.745V7.58599H5.79166V7.53934H5.83832V7.49268H5.88497V7.44602H5.93163V7.39936H5.97829V7.35271H6.02494V7.30605H6.0716V7.2594H6.11826V7.21274H6.16492V7.16608H6.21157V7.11942H6.25823V7.07277H6.30489V7.02611H6.35154V6.97945H6.3982V6.88614H6.44486V6.83948H6.49152V6.79282H6.53817V6.74617H6.58483V6.69951H6.63149V6.65285H6.67814V6.60619H6.7248V6.55954H6.77146V6.51288H6.81812V6.46622H6.86477V6.41957H6.95809V6.37291H7.00474V6.32625H7.0514V6.27959H7.09806V6.23294H7.14472V6.18628H7.19137V6.13962H7.23803V6.09297H7.28469V6.04631H7.33134V5.99965H7.378V5.953H7.42466V5.90634H7.47132V5.85968H7.51797V5.81302H7.56463V5.76637H7.65794V5.71971H7.7046V5.67305H7.75126V5.6264H7.79792V5.57974H7.84457V5.53308H7.89123V5.48642H7.93789V5.43977H8.0312V5.39311H8.07786V5.34645H8.12452V5.2998H8.17117V5.25314H8.21783V5.20648H8.26449V5.15982H8.3578V5.11317H8.40446V5.06651H8.45112V5.01985H8.54443V4.97319H8.59109V4.92654H8.63774V4.87988H8.6844V4.83323H8.77772V4.78657H8.82437V4.73991H8.87103V4.69325H8.91769V4.6466H9.011V4.59994H9.05766V4.55328H9.10431V4.50663H9.19763V4.45997H9.24429V4.41331H9.29094V4.36665H9.38426V4.32H9.43091V4.27334H9.52423V4.22668H9.57089V4.18002H9.61754V4.13337H9.71086V4.08671H9.75751V4.04005H9.85083V3.9934H9.89749V3.94674H9.94414V3.90008H10.0375V3.85342H10.0841V3.80677H10.1774V3.76011H10.2241V3.71345H10.3174V3.6668H10.4107V3.62014H10.4574V3.57348H10.5507V3.52682H10.5973V3.48017H10.6907V3.43351H10.7373V3.38685H10.8306V3.34019H10.9239V3.29354H10.9706V3.24688H11.0639V3.20023H11.1572V3.15357H11.2039V3.10691H11.2972V3.06025H11.3905V3.0136H11.4838V2.96694H11.5305V2.92028H11.6238V2.87363H11.7171V2.82697H11.7638V2.78031H11.8571V2.73365H11.9504V2.687H12.0437V2.64034H12.137V2.59368H12.2303V2.54702H12.3237V2.50037H12.417V2.45371H12.5103V2.40705H12.6036V2.3604H12.6969V2.31374H12.7902V2.26708H12.8835V2.22042H12.9769V2.17377H13.0702V2.12711H13.1635V2.08046H13.2568V2.0338H13.3968V1.98714H13.4901V1.94048H13.5834V1.89383H13.6767V1.84717H13.77V1.80051H13.91V1.75385H14.0033V1.7072H14.1433V1.66054H14.2366V1.61388H14.3766V1.56723H14.4699V1.52057H14.6099V1.47391H14.7032V1.42725H14.8431V1.3806H14.9365V1.33394H15.0764V1.28728H15.2164V1.24063H15.3564V1.19397H15.4963V1.14731H15.6363V1.10065H15.7763V1.054H15.9163V1.00734H16.0562V0.960682H16.2429V0.914024H16.3828V0.867371H16.5695V0.820713H16.7094V0.774055H16.8961V0.727398H17.036V0.68074H17.2227V0.634083H17.4559V0.587425H17.6426V0.540768H17.8292V0.49411H18.0625V0.447456H18.2491V0.400799H18.5291V0.354141H18.809V0.307484H19.0423V0.260826H19.3222V0.214169H19.6955V0.167511H20.0687V0.120853H20.3953V0.0741959H21.0019V0.0275421H21.6551V-0.0191154H23.8013V0.0275421H24.5478V0.0741959H25.0144V0.120853H25.481V0.167511H25.9009V0.214169H26.1808V0.260826H26.4608V0.307484H26.7407V0.354141H27.0207V0.400799H27.2539V0.447456H27.4872V0.49411H27.6739V0.540768H27.8605V0.587425H28.0471V0.634083H28.2804V0.68074H28.467V0.727398H28.6537V0.774055H28.8403V0.820713H28.9803V0.867371H29.1202V0.914024H29.3069V0.960682H29.4468V1.00734H29.5868V1.054H29.7268V1.10065H29.9134V1.14731H30.0534V1.19397H30.1933V1.24063H30.2866V1.28728H30.4266V1.33394H30.5666V1.3806H30.6599V1.42725H30.7999V1.47391H30.9398V1.52057H31.0332V1.56723H31.1731V1.61388H31.3131V1.66054H31.4064V1.7072H31.5464V1.75385H31.6397V1.80051H31.733V1.84717H31.8263V1.89383H31.9663V1.94048H32.0596V1.98714H32.1529V2.0338H32.2463V2.08046H32.3862V2.12711H32.4795V2.17377H32.5728V2.22042H32.6662V2.26708H32.7595V2.31374H32.8528V2.3604H32.9461V2.40705H33.0394V2.45371H33.1327V2.50037H33.2261V2.54702H33.3194V2.59368H33.4127V2.64034H33.506V2.687H33.5527V2.73365H33.646V2.78031H33.7393V2.82697H33.8326V2.87363H33.9259V2.92028H34.0192V2.96694H34.1125V3.0136H34.1592V3.06025H34.2525V3.10691H34.3458V3.15357H34.3925V3.20023H34.4858V3.24688H34.5791V3.29354H34.6258V3.34019H34.7191V3.38685H34.7657V3.43351H34.8591V3.48017H34.9524V3.52682H34.999V3.57348H35.0923V3.62014H35.1856V3.6668H35.2323V3.71345H35.3256V3.76011H35.3723V3.80677H35.4656V3.85342H35.5122V3.90008H35.6056V3.94674H35.6522V3.9934H35.6989V4.04005H35.7922V4.08671H35.8388V4.13337H35.9322V4.18002H35.9788V4.22668H36.0721V4.27334H36.1188V4.32H36.1654V4.36665H36.2588V4.41331H36.3054V4.45997H36.3987V4.50663H36.4454V4.55328H36.4921V4.59994H36.5854V4.6466H36.632V4.69325H36.6787V4.73991H36.772V4.78657H36.8186V4.83323H36.8653V4.87988H36.912V4.92654H36.9586V4.97319H37.0519V5.01985H37.0986V5.06651H37.1452V5.11317H37.1919V5.15982H37.2852V5.20648H37.3319V5.25314H37.3785V5.2998H37.4252V5.34645H37.5185V5.39311H37.5652V5.43977H37.6118V5.48642H37.6585V5.53308H37.7518V5.57974H37.7984V5.6264H37.8451V5.67305H37.8918V5.71971H37.9384V5.76637H37.9851V5.81302H38.0317V5.85968H38.0784V5.90634H38.125V5.953H38.1717V5.99965H38.2184V6.04631H38.3117V6.09297H38.3583V6.13962H38.405V6.18628H38.4516V6.23294H38.4983V6.27959H38.545V6.32625H38.5916V6.37291H38.6383V6.41957H38.6849V6.46622H38.7316V6.51288H38.7782V6.55954H38.8249V6.60619H38.8716V6.65285H38.9182V6.69951H38.9649V6.74617H39.0115V6.79282H39.0582V6.83948H39.1048V6.88614H39.1515V6.9328H39.1982V6.97945H39.2448V7.02611H39.2915V7.07277H39.3381V7.11942H39.3848V7.16608H39.4314V7.21274H39.4781V7.2594H39.5248V7.30605H39.5714V7.35271H39.6181V7.39936H39.6647V7.44602H39.7114V7.53934H39.758V7.58599H39.8047V7.63265H39.8514V7.67931H39.898V7.72597H39.9447V7.77262H39.9913V7.81928H40.038V7.91259H40.0846V7.95925H40.1313V8.00591H40.178V8.05257H40.2246V8.09922H40.2713V8.19254H40.3179V8.23919H40.3646V8.28585H40.4112V8.33251H40.4579V8.37917H40.5046V8.47248H40.5512V8.51914H40.5979V8.56579H40.6445V8.61245H40.6912V8.65911H40.7378V8.75242H40.7845V8.79908H40.8312V8.84574H40.8778V8.93905H40.9245V8.98571H40.9711V9.03236H41.0178V9.12568H41.0644V9.17234H41.1111V9.21899H41.1578V9.31231H41.2044V9.35897H41.2511V9.45228H41.2977V9.49894H41.3444V9.54559H41.391V9.63891H41.4377V9.68557H41.4844V9.73222H41.531V9.82553H41.5777V9.87219H41.6243V9.91885H41.671V10.0122H41.7176V10.1055H41.7643V10.1521H41.811V10.2454H41.8576V10.2921H41.9043V10.3854H41.9509V10.4321H41.9976V10.5254H42.0442V10.5721H42.0909V10.6654H42.1376V10.712H42.1842V10.8053H42.2309V10.852H42.2775V10.9453H42.3242V11.0386H42.3708V11.0853H42.4175V11.1786H42.4642V11.2719H42.5108V11.4585H42.5575V11.8784H42.5108V12.0184H42.4642V12.1117H42.4175V12.2051H42.3708V12.2517H42.3242V12.2984H42.2775V12.345H42.2309V12.4383H42.1376V12.485H42.0909V12.5317H41.9509V12.5783H41.7643V12.625H41.6243V12.5783H41.2977V12.5317H41.2044V12.485H41.1111V12.4383H41.0178V12.3917H40.9711V12.345H40.9245V12.2984H40.8778V12.2517H40.8312V12.2051H40.7845V12.1117H40.7378V12.0184H40.6912V11.9718H40.6445V11.8784H40.5979V11.7851H40.5512V11.7385H40.5046V11.6452H40.4579V11.5985H40.4112V11.5052H40.3646V11.4585H40.3179V11.3652H40.2713V11.3186H40.2246V11.2253H40.178V11.1786H40.1313V11.0853H40.0846V11.0386H40.038V10.9453H39.9913V10.8987H39.9447V10.8053H39.898V10.7587H39.8514V10.712H39.8047V10.6187H39.758V10.5721H39.7114V10.5254H39.6647V10.4321H39.6181V10.3854H39.5714V10.3388H39.5248V10.2454H39.4781V10.1988H39.4314V10.1055H39.3848V10.0588H39.3381V10.0122H39.2915V9.91885H39.2448V9.87219H39.1982V9.82553H39.1515V9.77888H39.1048V9.73222H39.0582V9.63891H39.0115V9.59225H38.9649V9.54559H38.9182V9.49894H38.8716V9.45228H38.8249V9.35897H38.7782V9.31231H38.7316V9.26565H38.6849V9.21899H38.6383V9.17234H38.5916V9.07902H38.545V9.03236H38.4983V8.98571H38.4516V8.93905H38.405V8.8924H38.3583V8.84574H38.3117V8.79908H38.265V8.75242H38.2184V8.65911H38.1717V8.61245H38.125V8.56579H38.0784V8.51914H38.0317V8.47248H37.9851V8.42582H37.9384V8.37917H37.8918V8.33251H37.8451V8.28585H37.7984V8.23919H37.7518V8.19254H37.7051V8.14588H37.6585V8.09922H37.6118V8.05257H37.5652V8.00591H37.5185V7.95925H37.4718V7.91259H37.4252V7.86594H37.3785V7.81928H37.3319V7.77262H37.2852V7.72597H37.2386V7.67931H37.1919V7.63265H37.1452V7.58599H37.0986V7.53934H37.0519V7.49268H36.9586V7.44602H36.912V7.39936H36.8653V7.35271H36.8186V7.30605H36.772V7.2594H36.7253V7.21274H36.6787V7.16608H36.632V7.11942H36.5854V7.07277H36.5387V7.02611H36.4921V6.97945H36.3987V6.9328H36.3521V6.88614H36.3054V6.83948H36.2588V6.79282H36.1654V6.74617H36.1188V6.69951H36.0721V6.65285H36.0255V6.60619H35.9322V6.55954H35.8855V6.51288H35.8388V6.46622H35.7922V6.41957H35.6989V6.37291H35.6522V6.32625H35.6056V6.27959H35.5589V6.23294H35.5122V6.18628H35.4189V6.13962H35.3723V6.09297H35.3256V6.04631H35.2323V5.99965H35.1856V5.953H35.0923V5.90634H35.0457V5.85968H34.999V5.81302H34.9057V5.76637H34.8591V5.71971H34.7657V5.67305H34.7191V5.6264H34.6258V5.57974H34.5791V5.53308H34.5324V5.48642H34.4391V5.43977H34.3925V5.39311H34.2992V5.34645H34.2525V5.2998H34.1592V5.25314H34.1125V5.20648H34.0192V5.15982H33.9259V5.11317H33.8792V5.06651H33.7859V5.01985H33.6926V4.97319H33.646V4.92654H33.5527V4.87988H33.506V4.83323H33.4127V4.78657H33.3194V4.73991H33.2727V4.69325H33.1794V4.6466H33.0861V4.59994H32.9928V4.55328H32.8994V4.50663H32.8528V4.45997H32.7595V4.41331H32.6662V4.36665H32.5728V4.32H32.4795V4.27334H32.3862V4.22668H32.2929V4.18002H32.1996V4.13337H32.1063V4.08671H32.0596V4.04005H31.9663V3.9934H31.873V3.94674H31.733V3.90008H31.6397V3.85342H31.5464V3.80677H31.4531V3.76011H31.3131V3.71345H31.2198V3.6668H31.1265V3.62014H31.0332V3.57348H30.9398V3.52682H30.7999V3.48017H30.7066V3.43351H30.5666V3.38685H30.4733V3.34019H30.3333V3.29354H30.1933V3.24688H30.1V3.20023H29.9601V3.15357H29.8201V3.10691H29.7268V3.06025H29.5868V3.0136H29.4468V2.96694H29.3069V2.92028H29.1669V2.87363H29.0269V2.82697H28.8403V2.78031H28.7003V2.73365H28.5603V2.687H28.4204V2.64034H28.2337V2.59368H28.0471V2.54702H27.8605V2.50037H27.6739V2.45371H27.4872V2.40705H27.2539V2.3604H27.0673V2.31374H26.8807V2.26708H26.6007V2.22042H26.3208V2.17377H26.0409V2.12711H25.7609V2.08046H25.481V2.0338H25.0144V1.98714H24.5478V1.94048H24.0346V1.89383H21.5618V1.94048H20.9552V1.98714H20.4887V2.0338H20.1154V2.08046H19.7421V2.12711H19.4622V2.17377H19.1823V2.22042H18.949V2.26708H18.669V2.31374H18.4357V2.3604H18.2491V2.40705H18.0625V2.45371H17.8292V2.50037H17.6426V2.54702H17.4559V2.59368H17.316V2.64034H17.1293V2.687H16.9894V2.73365H16.8027V2.78031H16.6628V2.82697H16.5228V2.87363H16.3828V2.92028H16.2429V2.96694H16.1029V3.0136H15.9629V3.06025H15.8229V3.10691H15.683V3.15357H15.543V3.20023H15.4497V3.24688H15.3097V3.29354H15.2164V3.34019H15.0764V3.38685H14.9365V3.43351H14.8431V3.48017H14.7032V3.52682H14.6099V3.57348H14.5165V3.62014H14.4232V3.6668H14.2833V3.71345H14.1899V3.76011H14.0966V3.80677H14.0033V3.85342H13.91V3.90008H13.77V3.94674H13.6767V3.9934H13.5834V4.04005H13.4901V4.08671H13.3968V4.13337H13.3501V4.18002H13.2568V4.22668H13.1635V4.27334H13.0702V4.32H12.9769V4.36665H12.8835V4.41331H12.7902V4.45997H12.6969V4.50663H12.6503V4.55328H12.5569V4.59994H12.4636V4.6466H12.3703V4.69325H12.3237V4.73991H12.2303V4.78657H12.137V4.83323H12.0437V4.87988H11.9971V4.92654H11.9037V4.97319H11.8104V5.01985H11.7638V5.06651H11.6705V5.11317H11.6238V5.15982H11.5305V5.20648H11.4838V5.25314H11.3905V5.2998H11.3439V5.34645H11.2505V5.39311H11.1572V5.43977H11.1106V5.48642H11.0639V5.53308H10.9706V5.57974H10.9239V5.6264H10.8306V5.67305H10.784V5.71971H10.6907V5.76637H10.644V5.81302H10.5973V5.85968H10.504V5.90634H10.4574V5.953H10.3641V5.99965H10.3174V6.04631H10.2707V6.09297H10.1774V6.13962H10.1308V6.18628H10.0841V6.23294H10.0375V6.27959H9.94414V6.32625H9.89749V6.37291H9.85083V6.41957H9.80417V6.46622H9.71086V6.51288H9.6642V6.55954H9.61754V6.60619H9.52423V6.65285H9.47757V6.69951H9.43091V6.74617H9.38426V6.79282H9.3376V6.83948H9.29094V6.88614H9.19763V6.9328H9.15097V6.97945H9.10431V7.02611H9.05766V7.07277H9.011V7.11942H8.96434V7.16608H8.91769V7.21274H8.82437V7.2594H8.77772V7.30605H8.73106V7.35271H8.6844V7.39936H8.63774V7.44602H8.59109V7.49268H8.54443V7.53934H8.49777V7.58599H8.45112V7.63265H8.40446V7.67931H8.3578V7.72597H8.31114V7.77262H8.26449V7.81928H8.21783V7.86594H8.17117V7.91259H8.07786V7.95925H8.0312V8.00591H7.98454V8.05257H7.93789V8.09922H7.89123V8.19254H7.84457V8.23919H7.79792V8.28585H7.75126V8.33251H7.7046V8.37917H7.65794V8.42582H7.61129V8.47248H7.56463V8.51914H7.51797V8.56579H7.47132V8.61245H7.42466V8.65911H7.378V8.70576H7.33134V8.75242H7.28469V8.79908H7.23803V8.84574H7.19137V8.93905H7.14472V8.98571H7.09806V9.03236H7.0514V9.07902H7.00474V9.12568H6.95809V9.17234H6.91143V9.26565H6.86477V9.31231H6.81812V9.35897H6.77146V9.40562H6.7248V9.45228H6.67814V9.49894H6.63149V9.59225H6.58483V9.63891H6.53817V9.68557H6.49152V9.73222H6.44486V9.82553H6.3982V9.87219H6.35154V9.91885H6.30489V10.0122H6.25823V10.0588H6.21157V10.1055H6.16492V10.1521H6.11826V10.2454H6.0716V10.2921H6.02494V10.3388H5.97829V10.4321H5.93163V10.4787H5.88497V10.5254H5.83832V10.6187H5.79166V10.6654H5.745V10.7587H5.69835V10.8053H5.65169V10.852H5.60503V10.9453H5.55837V10.992H5.51172V11.0853H5.46506V11.1319H5.4184V11.2253H5.37175V11.2719H5.32509V11.3652H5.27843V11.4119H5.23177V11.5052H5.18512V11.5985H5.13846V11.6452H5.0918V11.7385H5.04515V11.7851H4.99849V11.8784H4.95183V11.9251H4.90517V12.0184H4.85852V12.1117H4.81186V12.1584H4.7652V12.2517H4.71855V12.345H4.67189V12.4383H4.62523V12.485H4.57857V12.5783H4.53192V12.6716H4.48526V12.7649H4.4386V12.8116H4.39195V12.9049H4.34529V12.9982H4.29863V13.0915H4.25197V13.1848H4.20532V13.2782H4.15866V13.3715H4.112V13.4648H4.06535V13.5581H4.01869V13.6514H3.97203V13.7447H3.92537V13.838H3.87872V13.9314H3.83206V14.0247H3.7854V14.1646H3.73875V14.258H3.69209V14.3513H3.64543V14.4446H3.59877V14.5379H3.55212V14.6779H3.50546V14.7712H3.4588V14.9112H3.41215V15.0045H3.36549V15.1444H3.31883V15.2378H3.27217V15.3777H3.22552V15.471H3.17886V15.611H3.1322V15.751H3.08555V15.891H3.03889V16.0309H2.99223V16.1709H2.94557V16.3109H2.89892V16.4508H2.85226V16.5908H2.8056V16.7308H2.75895V16.8708H2.71229V17.0574H2.66563V17.244H2.61897V17.384H2.57232V17.5706H2.52566V17.7572H2.479V17.9439H2.43235V18.1305H2.38569V18.3638H2.33903V18.5504H2.29237V18.7837H2.24572V19.0636H2.19906V19.2969H2.1524V19.5769H2.10575V19.9035H2.05909V20.2767H2.01243V20.65H1.96577V21.2565H1.91912V22.0497H1.87246V23.5427H1.91912V24.2892H1.96577V24.8958H2.01243V25.269H2.05909V25.6423H2.10575V25.9689H2.1524V26.2488H2.19906V26.5288H2.24572V26.7621H2.29237V27.042H2.33903V27.2286H2.38569V27.4153H2.43235V27.6019H2.479V27.8352H2.52566V28.0218H2.57232V28.1618H2.61897V28.3484H2.66563V28.535H2.71229V28.675H2.75895V28.8616H2.8056V29.0016H2.85226V29.1416H2.89892V29.2816H2.94557V29.4215H2.99223V29.5615H3.03889V29.7015H3.08555V29.8414H3.1322V29.9814H3.17886V30.0747H3.22552V30.2147H3.27217V30.308H3.31883V30.448H3.36549V30.5413H3.41215V30.6813H3.4588V30.7746H3.50546V30.9146H3.55212V31.0079H3.59877V31.1012H3.64543V31.1945H3.69209V31.3345H3.73875V31.4278H3.7854V31.5211H3.83206V31.6144H3.87872V31.7077H3.92537V31.8477H3.97203V31.941H4.01869V32.0343H4.06535V32.1276H4.112V32.1743H4.15866V32.2676H4.20532V32.3609H4.25197V32.4542H4.29863V32.5476H4.34529V32.6409H4.39195V32.7342H4.4386V32.8275H4.48526V32.9208H4.53192V32.9675H4.57857V33.0608H4.62523V33.1541H4.67189V33.2474H4.71855V33.2941H4.7652V33.3874H4.81186V33.4807H4.85852V33.574H4.90517V33.6207H4.95183V33.714H4.99849V33.7606H5.04515V33.854H5.0918V33.9006H5.13846V33.9939H5.18512V34.0872H5.23177V34.1339H5.27843V34.2272H5.32509V34.2739H5.37175V34.3672H5.4184V34.4138H5.46506V34.5072H5.51172V34.5538H5.55837V34.6471H5.60503V34.6938H5.65169V34.7404H5.69835V34.8338H5.745V34.8804H5.79166V34.9737H5.83832V35.0204H5.88497V35.067H5.93163V35.1604H5.97829V35.207H6.02494V35.3003H6.0716V35.347H6.11826V35.3936H6.16492V35.4403H6.21157V35.5336H6.25823V35.5803H6.30489V35.6269H6.35154V35.7202H6.3982V35.7669H6.44486V35.8136H6.49152V35.8602H6.53817V35.9535H6.58483V36.0002H6.63149V36.0468H6.67814V36.0935H6.7248V36.1868H6.77146V36.2335H6.81812V36.2801H6.86477V36.3268H6.91143V36.3734H6.95809V36.4201H7.00474V36.4668H7.0514V36.5601H7.09806V36.6067H7.14472V36.6534H7.19137V36.7H7.23803V36.7467H7.28469V36.7934H7.33134V36.84H7.378V36.8867H7.42466V36.98H7.47132V37.0266H7.51797V37.0733H7.56463V37.12H7.61129V37.1666H7.65794V37.2133H7.7046V37.2599H7.75126V37.3066H7.79792V37.3532H7.84457V37.3999H7.89123V37.4466H7.93789V37.4932H7.98454V37.5399H8.0312V37.5865H8.07786V37.6332H8.12452V37.6798H8.17117V37.7265H8.21783V37.7732H8.26449V37.8198H8.31114V37.8665H8.3578V37.9131H8.40446V37.9598H8.45112V38.0064H8.49777V38.0531H8.54443V38.0998H8.59109V38.1464H8.6844V38.1931H8.73106V38.2397H8.77772V38.2864H8.82437V38.333H8.87103V38.3797H8.91769V38.4264H8.96434V38.473H9.011V38.5197H9.10431V38.5663H9.15097V38.613H9.19763V38.6596H9.24429V38.7063H9.29094V38.753H9.3376V38.7996H9.38426V38.8463H9.47757V38.8929H9.52423V38.9396H9.57089V38.9862H9.61754V39.0329H9.71086V39.0796H9.75751V39.1262H9.80417V39.1729H9.85083V39.2195H9.94414V39.2662H9.9908V39.3128H10.0375V39.3595H10.1308V39.4062H10.1774V39.4528H10.2241V39.4995H10.2707V39.5461H10.3641V39.5928H10.4107V39.6394H10.504V39.6861H10.5507V39.7328H10.5973V39.7794H10.6907V39.8261H10.7373V39.8727H10.8306V39.9194H10.8773V39.966H10.9239V40.0127H11.0173V40.0594H11.0639V40.106H11.1572V40.1527H11.2039V40.1993H11.2972V40.246H11.3439V40.2926H11.4372V40.3393H11.4838V40.386H11.5771V40.4326H11.6705V40.4793H11.7171V40.5259H11.8104V40.5726H11.8571V40.6192H11.9504V40.6659H11.9971V40.7126H12.0904V40.7592H12.1837V40.8059H12.277V40.8525H12.3237V40.8992H12.417V40.9458H12.5103V40.9925H12.6036V41.0392H12.6503V41.0858H12.7436V41.1325H12.8369V41.1791H12.9302V41.2258H13.0235V41.2724H13.1168V41.3191H13.2101V41.3658H13.3035V41.4124H13.3968V41.4591H13.4434V41.5057H13.5367V41.5524H13.6301V41.599H13.7234V41.6457H13.8167V41.6924H13.9567V41.739H14.05V41.7857H14.1433V41.8323H14.2366V41.879H14.3766V41.9256H14.4699V41.9723H14.5632V42.019H14.6565V42.0656H14.7965V42.1123H14.8898V42.1589H15.0298V42.2056H15.1231V42.2522H15.2631V42.2989H15.3564V42.3456H15.4963V42.3922H15.5897V42.4389H15.7296V42.4855H15.8696V42.5322H16.0096V42.5788H16.1495V42.6255H16.2895V42.6722H16.4295V42.7188H16.5695V42.7655H16.7094V42.8121H16.8961V42.8588H17.036V42.9054H17.2227V42.9521H17.3626V42.9988H17.5493V43.0454H17.7359V43.0921H17.9225V43.1387H18.1558V43.1854H18.3424V43.232H18.5291V43.2787H18.809V43.3254H19.0423V43.372H19.3222V43.4187H19.5555V43.4653H19.9288V43.512H20.302V43.5586H20.6753V43.6053H21.2352V43.652H22.0283V43.6986H23.5214V43.652H24.3145V43.6053H24.7811V43.5586H25.2477V43.512H25.6209V43.4653H25.9009V43.4187H26.1808V43.372H26.4608V43.3254H26.7407V43.2787H26.974V43.232H27.1606V43.1854H27.3939V43.1387H27.5805V43.0921H27.7672V43.0454H27.9538V42.9988H28.1871V42.9521H28.3271V42.9054H28.467V42.8588H28.607V42.8121H28.7936V42.7655H28.9336V42.7188H29.0736V42.6722H29.2602V42.6255H29.4002V42.5788H29.5401V42.5322H29.6335V42.4855H29.7734V42.4389H29.9134V42.3922H30.0067V42.3456H30.1467V42.2989H30.2866V42.2522H30.38V42.2056H30.5199V42.1589H30.6599V42.1123H30.7532V42.0656H30.8465V42.019H30.9865V41.9723H31.0798V41.9256H31.1731V41.879H31.2665V41.8323H31.4064V41.7857H31.4997V41.739H31.5931V41.6924H31.6864V41.6457H31.7797V41.599H31.9196V41.5524H32.013V41.5057H32.1063V41.4591H32.1529V41.4124H32.2463V41.3658H32.3396V41.3191H32.4329V41.2724H32.5262V41.2258H32.6195V41.1791H32.7128V41.1325H32.8061V41.0858H32.8994V41.0392H32.9461V40.9925H33.0394V40.9458H33.1327V40.8992H33.2261V40.8525H33.2727V40.8059H33.366V40.7592H33.4593V40.7126H33.506V40.6659H33.5993V40.6192H33.6926V40.5726H33.7393V40.5259H33.8326V40.4793H33.8792V40.4326H33.9726V40.386H34.0659V40.3393H34.1125V40.2926H34.2058V40.246H34.2992V40.1993H34.3458V40.1527H34.3925V40.106H34.4858V40.0594H34.5324V40.0127H34.6258V39.966H34.6724V39.9194H34.7657V39.8727H34.8124V39.8261H34.8591V39.7794H34.9524V39.7328H34.999V39.6861H35.0923V39.6394H35.139V39.5928H35.2323V39.5461H35.279V39.4995H35.3256V39.4528H35.4189V39.4062H35.4656V39.3595H35.5122V39.3128H35.5589V39.2662H35.6522V39.2195H35.6989V39.1729H35.7455V39.1262H35.7922V39.0796H35.8855V39.0329H35.9322V38.9862H35.9788V38.9396H36.0255V38.8929H36.1188V38.8463H36.1654V38.7996H36.2121V38.753H36.2588V38.7063H36.3521V38.6596H36.3987V38.613H36.4454V38.5663H36.4921V38.5197H36.5387V38.473H36.5854V38.4264H36.632V38.3797H36.6787V38.333H36.772V38.2864H36.8186V38.2397H36.8653V38.1931H36.912V38.1464H36.9586V38.0998H37.0053V38.0531H37.0519V38.0064H37.0986V37.9598H37.1452V37.9131H37.1919V37.8665H37.2386V37.8198H37.3319V37.7732H37.3785V37.7265H37.4252V37.6798H37.4718V37.6332H37.5185V37.5865H37.5652V37.5399H37.6118V37.4932H37.6585V37.4466H37.7051V37.3532H37.7518V37.3066H37.7984V37.2599H37.8451V37.2133H37.8918V37.1666H37.9384V37.12H37.9851V37.0733H38.0317V37.0266H38.0784V36.98H38.125V36.9333H38.1717V36.8867H38.2184V36.84H38.265V36.7934H38.3117V36.7467H38.3583V36.7H38.405V36.6534H38.4516V36.5601H38.4983V36.5134H38.545V36.4668H38.5916V36.4201H38.6383V36.3734H38.6849V36.2801H38.7316V36.2335H38.7782V36.1868H38.8249V36.1402H38.8716V36.0935H38.9182V36.0468H38.9649V35.9535H39.0115V35.9069H39.0582V35.8602H39.1048V35.8136H39.1515V35.7669H39.1982V35.6736H39.2448V35.6269H39.2915V35.5803H39.3381V35.487H39.3848V35.4403H39.4314V35.3936H39.4781V35.3003H39.5248V35.2537H39.5714V35.207H39.6181V35.1137H39.6647V35.067H39.7114V35.0204H39.758V34.9271H39.8047V34.8804H39.8514V34.7871H39.898V34.7404H39.9447V34.6938H39.9913V34.6005H40.038V34.5538H40.0846V34.4605H40.1313V34.4138H40.178V34.3205H40.2246V34.2739H40.2713V34.1806H40.3179V34.1339H40.3646V34.0406H40.4112V33.9939H40.4579V33.9006H40.5046V33.854H40.5512V33.7606H40.5979V33.714H40.6445V33.6207H40.6912V33.5274H40.7378V33.4807H40.7845V33.3874H40.8312V33.2941H40.8778V33.2474H40.9245V33.2008H40.9711V33.1541H41.0644V33.1074H41.1578V33.0608H41.2511V33.0141H41.3444V32.9675H41.8576V33.0141H42.0442V33.0608H42.0909V33.1074H42.1842V33.1541H42.2309V33.2008H42.2775V33.2474H42.3242V33.2941H42.3708V33.3407H42.4175V33.4807H42.4642V33.574H42.5108V33.714H42.5575V34.1339H42.5108V34.2739H42.4642V34.3672H42.4175V34.4605H42.3708V34.5538H42.3242V34.6005H42.2775V34.6938H42.2309V34.7871H42.1842V34.8338H42.1376V34.9271H42.0909V34.9737H42.0442V35.067H41.9976V35.1137H41.9509V35.207H41.9043V35.2537H41.8576V35.347H41.811V35.3936H41.7643V35.487H41.7176V35.5803H41.671V35.6269H41.6243V35.6736H41.5777V35.7669H41.531V35.8136H41.4844V35.9069H41.4377V35.9535H41.391V36.0002H41.3444V36.0935H41.2977V36.1402H41.2511V36.1868H41.2044V36.2801H41.1578V36.3268H41.1111V36.3734H41.0644V36.4668H41.0178V36.5134H40.9711V36.6067H40.9245V36.6534H40.8778V36.7H40.8312V36.7934H40.7845V36.84H40.7378V36.8867H40.6912V36.9333H40.6445V37.0266H40.5979V37.0733H40.5512V37.12H40.5046V37.1666H40.4579V37.2133H40.4112V37.3066H40.3646V37.3532H40.3179V37.3999H40.2713V37.4466H40.2246V37.4932H40.178V37.5399H40.1313V37.6332H40.0846V37.6798H40.038V37.7265H39.9913V37.7732H39.9447V37.8198H39.898V37.9131H39.8514V37.9598H39.8047V38.0064H39.758V38.0531H39.7114V38.0998H39.6647V38.1464H39.6181V38.1931H39.5714V38.2397H39.5248V38.2864H39.4781V38.333H39.4314V38.3797H39.3848V38.4264H39.3381V38.473H39.2915V38.5197H39.2448V38.5663H39.1982V38.6596H39.1515V38.7063H39.1048V38.753H39.0582V38.7996H39.0115V38.8463H38.9649V38.8929H38.9182V38.9396H38.8716V38.9862H38.8249V39.0329H38.7782V39.0796H38.7316V39.1262H38.6849V39.1729H38.6383V39.2195H38.5916V39.2662H38.4983V39.3128H38.4516V39.3595H38.405V39.4062H38.3583V39.4528H38.3117V39.4995H38.265V39.5461H38.2184V39.5928H38.1717V39.6394H38.125V39.6861H38.0784V39.7328H38.0317V39.7794H37.9384V39.8261H37.8918V39.8727H37.8451V39.9194H37.7984V39.966H37.7518V40.0127H37.7051V40.0594H37.6585V40.106H37.6118V40.1527H37.5185V40.1993H37.4718V40.246H37.4252V40.2926H37.3785V40.3393H37.2852V40.386H37.2386V40.4326H37.1919V40.4793H37.1452V40.5259H37.0519V40.5726H37.0053V40.6192H36.9586V40.6659H36.912V40.7126H36.8186V40.7592H36.772V40.8059H36.7253V40.8525H36.6787V40.8992H36.5854V40.9458H36.5387V40.9925H36.4921V41.0392H36.3987V41.0858H36.3521V41.1325H36.3054V41.1791H36.2121V41.2258H36.1654V41.2724H36.0721V41.3191H36.0255V41.3658H35.9322V41.4124H35.8855V41.4591H35.8388V41.5057H35.7455V41.5524H35.6989V41.599H35.6056V41.6457H35.5589V41.6924H35.5122V41.739H35.4189V41.7857H35.3723V41.8323H35.279V41.879H35.1856V41.9256H35.139V41.9723H35.0457V42.019H34.999V42.0656H34.9057V42.1123H34.8124V42.1589H34.7657V42.2056H34.6724V42.2522H34.5791V42.2989H34.5324V42.3456H34.4391V42.3922H34.3925V42.4389H34.2992V42.4855H34.2058V42.5322H34.1592V42.5788H34.0659V42.6255H33.9726V42.6722H33.8792V42.7188H33.7859V42.7655H33.6926V42.8121H33.5993V42.8588H33.5527V42.9054H33.4593V42.9521H33.366V42.9988H33.2727V43.0454H33.1794V43.0921H33.0861V43.1387H32.9928V43.1854H32.8994V43.232H32.8061V43.2787H32.7128V43.3254H32.6195V43.372H32.5262V43.4187H32.4329V43.4653H32.2929V43.512H32.1996V43.5586H32.1063V43.6053H32.013V43.652H31.9196V43.6986H31.7797V43.7453H31.6864V43.7919H31.5931V43.8386H31.4997V43.8852H31.3598V43.9319H31.2198V43.9786H31.1265V44.0252H30.9865V44.0719H30.8465V44.1185H30.7532V44.1652H30.6133V44.2118H30.4733V44.2585H30.38V44.3051H30.24V44.3518H30.1V44.3985H29.9601V44.4451H29.8201V44.4918H29.6801V44.5384H29.4935V44.5851H29.3535V44.6317H29.2135V44.6784H29.0736V44.7251H28.8869V44.7717H28.747V44.8184H28.5603V44.865H28.3737V44.9117H28.1871V44.9583H27.9538V45.005H27.7672V45.0517H27.5805V45.0983H27.3939V45.145H27.1606V45.1916H26.8807V45.2383H26.6007V45.2849H26.3208V45.3316H26.0409V45.3783H25.7143V45.4249H25.2477V45.4716H24.7811V45.5182H24.3145V45.5649H23.2881V45.6115" fill="url(#paint0_linear_5457_42876)"/>
</g>
</g>
<path d="M116.516 52.1667H45.1293V51.5084H116.516V52.1667Z" fill="#2B2E8C"/>
<path d="M114.413 59.5162V62.681C114.413 62.9423 114.468 63.1284 114.579 63.2395C114.69 63.344 114.883 63.3962 115.158 63.3962H115.814V64.1507H115.011C114.514 64.1507 114.142 64.0364 113.894 63.8077C113.645 63.5791 113.521 63.2035 113.521 62.681V59.5162H112.826V58.7814H113.521V57.4293H114.413V58.7814H115.814V59.5162H114.413Z" fill="#2B2E8C"/>
<path d="M109.478 58.6835C110.132 58.6835 110.661 58.8827 111.066 59.2812C111.471 59.6731 111.673 60.2414 111.673 60.986V64.1508H110.791V61.1134C110.791 60.5778 110.657 60.1695 110.39 59.8887C110.122 59.6012 109.756 59.4575 109.292 59.4575C108.822 59.4575 108.446 59.6045 108.165 59.8985C107.891 60.1924 107.754 60.6202 107.754 61.182V64.1508H106.862V58.7815H107.754V59.5457C107.93 59.2714 108.169 59.0591 108.469 58.9089C108.776 58.7586 109.113 58.6835 109.478 58.6835Z" fill="#2B2E8C"/>
<path d="M105.489 61.2603C105.489 61.4302 105.479 61.6098 105.459 61.7992H101.168C101.2 62.3283 101.38 62.7431 101.707 63.0436C102.04 63.3375 102.441 63.4845 102.912 63.4845C103.297 63.4845 103.617 63.3963 103.872 63.2199C104.133 63.037 104.316 62.7954 104.421 62.4949H105.381C105.237 63.0109 104.95 63.4322 104.519 63.7588C104.088 64.0789 103.552 64.2389 102.912 64.2389C102.402 64.2389 101.945 64.1246 101.54 63.896C101.142 63.6674 100.828 63.344 100.599 62.926C100.371 62.5014 100.257 62.0115 100.257 61.4563C100.257 60.9011 100.368 60.4144 100.59 59.9964C100.812 59.5783 101.122 59.2583 101.52 59.0362C101.925 58.8076 102.389 58.6933 102.912 58.6933C103.421 58.6933 103.872 58.8043 104.264 59.0264C104.656 59.2485 104.956 59.5555 105.165 59.9474C105.381 60.3328 105.489 60.7704 105.489 61.2603ZM104.568 61.0742C104.568 60.7345 104.493 60.4438 104.342 60.2022C104.192 59.9539 103.986 59.7678 103.725 59.6437C103.47 59.513 103.186 59.4477 102.873 59.4477C102.422 59.4477 102.037 59.5914 101.716 59.8788C101.403 60.1662 101.223 60.5647 101.178 61.0742H104.568Z" fill="#2B2E8C"/>
<path d="M96.7558 58.6835C97.1738 58.6835 97.5462 58.7717 97.8728 58.948C98.1994 59.1179 98.4574 59.3759 98.6468 59.7221C98.8362 60.0683 98.931 60.4896 98.931 60.986V64.1508H98.0491V61.1134C98.0491 60.5778 97.9152 60.1695 97.6474 59.8887C97.3861 59.6012 97.0301 59.4575 96.5794 59.4575C96.1157 59.4575 95.7466 59.6078 95.4723 59.9083C95.1979 60.2022 95.0607 60.63 95.0607 61.1918V64.1508H94.1789V61.1134C94.1789 60.5778 94.045 60.1695 93.7772 59.8887C93.5159 59.6012 93.1599 59.4575 92.7092 59.4575C92.2455 59.4575 91.8764 59.6078 91.6021 59.9083C91.3277 60.2022 91.1905 60.63 91.1905 61.1918V64.1508H90.2989V58.7815H91.1905V59.5555C91.3669 59.2746 91.6021 59.0591 91.896 58.9089C92.1965 58.7586 92.5263 58.6835 92.8856 58.6835C93.3363 58.6835 93.7348 58.7847 94.0809 58.9872C94.4271 59.1897 94.6852 59.4869 94.855 59.8789C95.0052 59.5 95.2534 59.2061 95.5996 58.997C95.9458 58.788 96.3312 58.6835 96.7558 58.6835Z" fill="#2B2E8C"/>
<path d="M88.927 61.2603C88.927 61.4302 88.9172 61.6098 88.8976 61.7992H84.606C84.6387 62.3283 84.8183 62.7431 85.1449 63.0436C85.4781 63.3375 85.8798 63.4845 86.3501 63.4845C86.7355 63.4845 87.0555 63.3963 87.3103 63.2199C87.5716 63.037 87.7545 62.7954 87.859 62.4949H88.8192C88.6755 63.0109 88.3881 63.4322 87.957 63.7588C87.5258 64.0789 86.9902 64.2389 86.3501 64.2389C85.8406 64.2389 85.3833 64.1246 84.9784 63.896C84.5799 63.6674 84.2664 63.344 84.0378 62.926C83.8091 62.5014 83.6948 62.0115 83.6948 61.4563C83.6948 60.9011 83.8059 60.4144 84.028 59.9964C84.25 59.5783 84.5603 59.2583 84.9588 59.0362C85.3637 58.8076 85.8275 58.6933 86.3501 58.6933C86.8596 58.6933 87.3103 58.8043 87.7022 59.0264C88.0941 59.2485 88.3946 59.5555 88.6036 59.9474C88.8192 60.3328 88.927 60.7704 88.927 61.2603ZM88.0059 61.0742C88.0059 60.7345 87.9308 60.4438 87.7806 60.2022C87.6304 59.9539 87.4246 59.7678 87.1633 59.6437C86.9086 59.513 86.6244 59.4477 86.3109 59.4477C85.8602 59.4477 85.4748 59.5914 85.1547 59.8788C84.8412 60.1662 84.6616 60.5647 84.6158 61.0742H88.0059Z" fill="#2B2E8C"/>
<path d="M79.424 58.6933C79.8878 58.6933 80.2928 58.7945 80.639 58.997C80.9917 59.1995 81.253 59.4542 81.4228 59.7612V58.7814H82.3242V64.2683C82.3242 64.7582 82.2197 65.1926 82.0107 65.5715C81.8017 65.9568 81.5012 66.2573 81.1093 66.4729C80.7239 66.6884 80.2732 66.7962 79.7572 66.7962C79.0517 66.7962 78.4638 66.6296 77.9935 66.2965C77.5232 65.9634 77.2456 65.5094 77.1607 64.9346H78.0425C78.1405 65.2612 78.343 65.5225 78.65 65.7184C78.957 65.9209 79.3261 66.0222 79.7572 66.0222C80.2471 66.0222 80.6455 65.8687 80.9525 65.5617C81.2661 65.2547 81.4228 64.8235 81.4228 64.2683V63.1416C81.2465 63.4551 80.9852 63.7164 80.639 63.9254C80.2928 64.1344 79.8878 64.2389 79.424 64.2389C78.9472 64.2389 78.5128 64.1214 78.1209 63.8862C77.7355 63.651 77.4318 63.3212 77.2097 62.8966C76.9876 62.472 76.8766 61.9887 76.8766 61.4465C76.8766 60.8978 76.9876 60.4177 77.2097 60.0062C77.4318 59.5881 77.7355 59.2648 78.1209 59.0362C78.5128 58.8076 78.9472 58.6933 79.424 58.6933ZM81.4228 61.4563C81.4228 61.0513 81.3412 60.6986 81.1779 60.3981C81.0146 60.0976 80.7925 59.869 80.5116 59.7123C80.2373 59.549 79.9335 59.4673 79.6004 59.4673C79.2673 59.4673 78.9635 59.5457 78.6892 59.7025C78.4148 59.8592 78.196 60.0878 78.0327 60.3883C77.8694 60.6888 77.7878 61.0415 77.7878 61.4465C77.7878 61.858 77.8694 62.2173 78.0327 62.5243C78.196 62.8247 78.4148 63.0566 78.6892 63.2199C78.9635 63.3767 79.2673 63.4551 79.6004 63.4551C79.9335 63.4551 80.2373 63.3767 80.5116 63.2199C80.7925 63.0566 81.0146 62.8247 81.1779 62.5243C81.3412 62.2173 81.4228 61.8613 81.4228 61.4563Z" fill="#2B2E8C"/>
<path d="M70.06 61.4465C70.06 60.8978 70.171 60.4177 70.3931 60.0062C70.6152 59.5881 70.9189 59.2648 71.3043 59.0362C71.6962 58.8076 72.1306 58.6933 72.6074 58.6933C73.0777 58.6933 73.486 58.7945 73.8322 58.997C74.1784 59.1995 74.4364 59.4542 74.6062 59.7612V58.7814H75.5077V64.1507H74.6062V63.1513C74.4299 63.4649 74.1653 63.7262 73.8126 63.9352C73.4664 64.1377 73.0614 64.2389 72.5976 64.2389C72.1208 64.2389 71.6897 64.1214 71.3043 63.8862C70.9189 63.651 70.6152 63.3212 70.3931 62.8966C70.171 62.472 70.06 61.9887 70.06 61.4465ZM74.6062 61.4563C74.6062 61.0513 74.5246 60.6986 74.3613 60.3981C74.198 60.0976 73.9759 59.869 73.695 59.7123C73.4207 59.549 73.1169 59.4673 72.7838 59.4673C72.4507 59.4673 72.1469 59.5457 71.8726 59.7025C71.5983 59.8592 71.3794 60.0878 71.2161 60.3883C71.0528 60.6888 70.9712 61.0415 70.9712 61.4465C70.9712 61.858 71.0528 62.2173 71.2161 62.5243C71.3794 62.8247 71.5983 63.0566 71.8726 63.2199C72.1469 63.3767 72.4507 63.4551 72.7838 63.4551C73.1169 63.4551 73.4207 63.3767 73.695 63.2199C73.9759 63.0566 74.198 62.8247 74.3613 62.5243C74.5246 62.2173 74.6062 61.8613 74.6062 61.4563Z" fill="#2B2E8C"/>
<path d="M66.5451 58.6835C67.1983 58.6835 67.7274 58.8827 68.1323 59.2812C68.5373 59.6731 68.7398 60.2414 68.7398 60.986V64.1508H67.858V61.1134C67.858 60.5778 67.7241 60.1695 67.4563 59.8887C67.1885 59.6012 66.8227 59.4575 66.3589 59.4575C65.8886 59.4575 65.513 59.6045 65.2321 59.8985C64.9578 60.1924 64.8206 60.6202 64.8206 61.182V64.1508H63.929V58.7815H64.8206V59.5457C64.997 59.2714 65.2354 59.0591 65.5359 58.9089C65.8429 58.7586 66.1793 58.6835 66.5451 58.6835Z" fill="#2B2E8C"/>
<path d="M56.7804 61.4465C56.7804 60.8978 56.8914 60.4177 57.1135 60.0062C57.3356 59.5881 57.6393 59.2648 58.0247 59.0362C58.4166 58.8076 58.851 58.6933 59.3278 58.6933C59.7981 58.6933 60.2064 58.7945 60.5526 58.997C60.8988 59.1995 61.1568 59.4542 61.3266 59.7612V58.7814H62.2281V64.1507H61.3266V63.1513C61.1503 63.4649 60.8857 63.7262 60.533 63.9352C60.1868 64.1377 59.7818 64.2389 59.318 64.2389C58.8412 64.2389 58.4101 64.1214 58.0247 63.8862C57.6393 63.651 57.3356 63.3212 57.1135 62.8966C56.8914 62.472 56.7804 61.9887 56.7804 61.4465ZM61.3266 61.4563C61.3266 61.0513 61.245 60.6986 61.0817 60.3981C60.9184 60.0976 60.6963 59.869 60.4154 59.7123C60.1411 59.549 59.8373 59.4673 59.5042 59.4673C59.1711 59.4673 58.8673 59.5457 58.593 59.7025C58.3187 59.8592 58.0998 60.0878 57.9365 60.3883C57.7732 60.6888 57.6916 61.0415 57.6916 61.4465C57.6916 61.858 57.7732 62.2173 57.9365 62.5243C58.0998 62.8247 58.3187 63.0566 58.593 63.2199C58.8673 63.3767 59.1711 63.4551 59.5042 63.4551C59.8373 63.4551 60.1411 63.3767 60.4154 63.2199C60.6963 63.0566 60.9184 62.8247 61.0817 62.5243C61.245 62.2173 61.3266 61.8613 61.3266 61.4563Z" fill="#2B2E8C"/>
<path d="M55.4051 57.3705V64.1507H54.5135V59.095L52.26 64.1507H51.6329L49.3696 59.0852V64.1507H48.4779V57.3705H49.4381L51.9464 62.975L54.4547 57.3705H55.4051Z" fill="#2B2E8C"/>
<path d="M41.8696 58.6835C42.2745 58.6835 42.6403 58.7717 42.9669 58.948C43.2935 59.1179 43.5483 59.3759 43.7312 59.7221C43.9206 60.0683 44.0153 60.4896 44.0153 60.986V64.1508H43.1335V61.1134C43.1335 60.5778 42.9996 60.1695 42.7318 59.8886C42.464 59.6012 42.0982 59.4575 41.6344 59.4575C41.1641 59.4575 40.7885 59.6045 40.5076 59.8984C40.2333 60.1924 40.0961 60.6202 40.0961 61.182V64.1508H39.2045V56.9003H40.0961V59.5457C40.2725 59.2714 40.5142 59.0591 40.8212 58.9088C41.1347 58.7586 41.4842 58.6835 41.8696 58.6835Z" fill="#2B2E8C"/>
<path d="M36.5268 59.5162V62.681C36.5268 62.9422 36.5824 63.1284 36.6934 63.2394C36.8044 63.344 36.9971 63.3962 37.2715 63.3962H37.9279V64.1507H37.1245C36.6281 64.1507 36.2558 64.0363 36.0075 63.8077C35.7593 63.5791 35.6352 63.2035 35.6352 62.681V59.5162H34.9396V58.7814H35.6352V57.4292H36.5268V58.7814H37.9279V59.5162H36.5268Z" fill="#2B2E8C"/>
<path d="M33.7244 56.9003V64.1508H32.8328V56.9003H33.7244Z" fill="#2B2E8C"/>
<path d="M25.6825 61.4467C25.6825 60.898 25.7936 60.4179 26.0157 60.0064C26.2377 59.5883 26.5415 59.265 26.9269 59.0364C27.3188 58.8078 27.7532 58.6934 28.23 58.6934C28.7003 58.6934 29.1086 58.7947 29.4548 58.9972C29.801 59.1997 30.059 59.4544 30.2288 59.7614V58.7816H31.1302V64.1509H30.2288V63.1515C30.0524 63.4651 29.7879 63.7263 29.4352 63.9354C29.089 64.1379 28.684 64.2391 28.2202 64.2391C27.7434 64.2391 27.3123 64.1215 26.9269 63.8864C26.5415 63.6512 26.2377 63.3214 26.0157 62.8968C25.7936 62.4722 25.6825 61.9888 25.6825 61.4467ZM30.2288 61.4565C30.2288 61.0515 30.1471 60.6988 29.9838 60.3983C29.8205 60.0978 29.5985 59.8692 29.3176 59.7124C29.0432 59.5491 28.7395 59.4675 28.4064 59.4675C28.0732 59.4675 27.7695 59.5459 27.4952 59.7026C27.2208 59.8594 27.002 60.088 26.8387 60.3885C26.6754 60.689 26.5937 61.0417 26.5937 61.4467C26.5937 61.8582 26.6754 62.2175 26.8387 62.5245C27.002 62.8249 27.2208 63.0568 27.4952 63.2201C27.7695 63.3769 28.0732 63.4553 28.4064 63.4553C28.7395 63.4553 29.0432 63.3769 29.3176 63.2201C29.5985 63.0568 29.8205 62.8249 29.9838 62.5245C30.1471 62.2175 30.2288 61.8615 30.2288 61.4565Z" fill="#2B2E8C"/>
<path d="M24.6426 61.2605C24.6426 61.4304 24.6328 61.61 24.6132 61.7994H20.3217C20.3543 62.3285 20.534 62.7433 20.8606 63.0438C21.1937 63.3377 21.5954 63.4847 22.0657 63.4847C22.4511 63.4847 22.7712 63.3965 23.0259 63.2201C23.2872 63.0372 23.4701 62.7955 23.5746 62.4951H24.5348C24.3911 63.0111 24.1037 63.4324 23.6726 63.759C23.2415 64.0791 22.7058 64.2391 22.0657 64.2391C21.5562 64.2391 21.099 64.1248 20.694 63.8962C20.2955 63.6676 19.982 63.3442 19.7534 62.9262C19.5248 62.5016 19.4105 62.0117 19.4105 61.4565C19.4105 60.9013 19.5215 60.4146 19.7436 59.9966C19.9657 59.5785 20.2759 59.2585 20.6744 59.0364C21.0794 58.8078 21.5432 58.6934 22.0657 58.6934C22.5752 58.6934 23.0259 58.8045 23.4178 59.0266C23.8098 59.2487 24.1102 59.5557 24.3193 59.9476C24.5348 60.333 24.6426 60.7706 24.6426 61.2605ZM23.7216 61.0744C23.7216 60.7347 23.6465 60.444 23.4962 60.2023C23.346 59.9541 23.1402 59.768 22.8789 59.6438C22.6242 59.5132 22.3401 59.4479 22.0265 59.4479C21.5758 59.4479 21.1904 59.5916 20.8704 59.879C20.5568 60.1664 20.3772 60.5649 20.3315 61.0744H23.7216Z" fill="#2B2E8C"/>
<path d="M18.5716 57.3215L16.5924 64.1507H15.593L14.0057 58.6541L12.3597 64.1507L11.3701 64.1605L9.45947 57.3215H10.4099L11.8992 63.1121L13.5452 57.3215H14.5446L16.1123 63.0925L17.6114 57.3215H18.5716Z" fill="#2B2E8C"/>
<defs>
<linearGradient id="paint0_linear_5457_42876" x1="9.08705" y1="4.03632" x2="33.8358" y2="41.917" gradientUnits="userSpaceOnUse">
<stop stop-color="#F8D50D"/>
<stop offset="1" stop-color="#F5A310"/>
</linearGradient>
</defs>
</svg>
